<svg xmlns="http://www.w3.org/2000/svg" viewBox="0 0 512 512">
  <rect width="512" height="512" rx="64" fill="#090b13"/>
  <rect x="16" y="16" width="480" height="480" rx="48" fill="none" stroke="#00f0ff" stroke-width="4" opacity="0.5"/>
  <!-- Radar circle -->
  <circle cx="256" cy="240" r="120" fill="none" stroke="#00f0ff" stroke-width="3" opacity="0.3"/>
  <circle cx="256" cy="240" r="80" fill="none" stroke="#00f0ff" stroke-width="2" opacity="0.2"/>
  <circle cx="256" cy="240" r="40" fill="none" stroke="#00f0ff" stroke-width="1.5" opacity="0.15"/>
  <!-- Crosshairs -->
  <line x1="256" y1="100" x2="256" y2="380" stroke="#00f0ff" stroke-width="1.5" opacity="0.25"/>
  <line x1="116" y1="240" x2="396" y2="240" stroke="#00f0ff" stroke-width="1.5" opacity="0.25"/>
  <!-- Sweep -->
  <path d="M256,240 L256,120 A120,120 0 0,1 360,180 Z" fill="#00f0ff" opacity="0.15"/>
  <!-- Center dot -->
  <circle cx="256" cy="240" r="6" fill="#00f0ff"/>
  <!-- WX text -->
  <text x="256" y="430" text-anchor="middle" font-family="monospace" font-size="64" font-weight="bold" fill="#00f0ff" letter-spacing="8">WX</text>
  <!-- Corner brackets -->
  <path d="M40,80 L40,40 L80,40" fill="none" stroke="#00f0ff" stroke-width="4" opacity="0.7"/>
  <path d="M432,40 L472,40 L472,80" fill="none" stroke="#00f0ff" stroke-width="4" opacity="0.7"/>
  <path d="M40,432 L40,472 L80,472" fill="none" stroke="#00f0ff" stroke-width="4" opacity="0.7"/>
  <path d="M432,472 L472,472 L472,432" fill="none" stroke="#00f0ff" stroke-width="4" opacity="0.7"/>
</svg>
